
<svg xmlns="http://www.w3.org/2000/svg" xmlns:xlink="http://www.w3.org/1999/xlink" width="16px" height="16px" viewBox="0 0 16 16" version="1.1">
<g id="surface1">
<path style=" stroke:none;fill-rule:nonzero;fill:rgb(100%,100%,100%);fill-opacity:1;" d="M 11.453125 4.25 C 11.136719 4.035156 10.714844 4.082031 10.453125 4.359375 L 8.953125 5.859375 C 8.660156 6.152344 8.660156 6.625 8.953125 6.921875 C 9.09375 7.0625 9.285156 7.140625 9.484375 7.140625 C 9.683594 7.140625 9.875 7.0625 10.015625 6.921875 L 11.550781 5.398438 C 11.707031 5.242188 11.789062 5.023438 11.769531 4.800781 C 11.753906 4.578125 11.636719 4.378906 11.453125 4.25 Z M 11.453125 4.25 "/>
<path style=" stroke:none;fill-rule:nonzero;fill:rgb(100%,100%,100%);fill-opacity:1;" d="M 6.390625 7.871094 C 6.3125 7.503906 5.984375 7.242188 5.609375 7.25 L 1.859375 7.25 C 1.445312 7.25 1.109375 7.585938 1.109375 8 C 1.109375 8.414062 1.445312 8.75 1.859375 8.75 L 5.648438 8.75 C 5.871094 8.75 6.082031 8.652344 6.226562 8.484375 C 6.367188 8.3125 6.429688 8.089844 6.390625 7.871094 Z M 6.390625 7.871094 "/>
<path style=" stroke:none;fill-rule:nonzero;fill:rgb(100%,100%,100%);fill-opacity:1;" d="M 7.921875 7.097656 C 8.425781 7.125 8.8125 7.554688 8.785156 8.058594 C 8.753906 8.5625 8.324219 8.949219 7.820312 8.917969 C 7.316406 8.890625 6.933594 8.460938 6.960938 7.957031 C 6.988281 7.453125 7.417969 7.070312 7.921875 7.097656 Z M 7.921875 7.097656 "/>
<path style=" stroke:none;fill-rule:nonzero;fill:rgb(100%,100%,100%);fill-opacity:1;" d="M 13.539062 2.335938 C 10.46875 -0.730469 5.515625 -0.789062 2.371094 2.199219 L 2.269531 2.300781 L 2.222656 2.34375 L 2.203125 2.367188 L 0.234375 4.328125 C 0.125 4.433594 0.09375 4.589844 0.148438 4.730469 C 0.203125 4.867188 0.332031 4.960938 0.480469 4.964844 L 4.234375 4.964844 C 4.382812 4.960938 4.511719 4.867188 4.566406 4.730469 C 4.621094 4.589844 4.589844 4.433594 4.484375 4.328125 L 3.414062 3.261719 C 6.011719 0.824219 10.089844 0.929688 12.558594 3.503906 C 15.023438 6.078125 14.957031 10.15625 12.410156 12.648438 C 9.863281 15.140625 5.785156 15.117188 3.265625 12.59375 C 2.972656 12.300781 2.496094 12.300781 2.203125 12.59375 C 1.910156 12.886719 1.910156 13.363281 2.203125 13.65625 C 5.328125 16.785156 10.398438 16.789062 13.527344 13.664062 C 16.660156 10.539062 16.664062 5.46875 13.539062 2.335938 Z M 13.539062 2.335938 "/>
</g>
</svg>
