
<svg xmlns="http://www.w3.org/2000/svg" xmlns:xlink="http://www.w3.org/1999/xlink" width="24px" height="24px" viewBox="0 0 24 24" version="1.1">
<g id="surface1">
<path style=" stroke:none;fill-rule:nonzero;fill:rgb(100%,100%,100%);fill-opacity:1;" d="M 17.179688 6.375 C 16.707031 6.054688 16.070312 6.125 15.679688 6.539062 L 13.429688 8.789062 C 12.992188 9.230469 12.992188 9.941406 13.429688 10.378906 C 13.640625 10.589844 13.925781 10.710938 14.226562 10.710938 C 14.523438 10.710938 14.8125 10.589844 15.023438 10.378906 L 17.324219 8.101562 C 17.5625 7.867188 17.683594 7.535156 17.65625 7.203125 C 17.628906 6.871094 17.453125 6.566406 17.179688 6.375 Z M 17.179688 6.375 "/>
<path style=" stroke:none;fill-rule:nonzero;fill:rgb(100%,100%,100%);fill-opacity:1;" d="M 9.585938 11.804688 C 9.46875 11.253906 8.976562 10.863281 8.414062 10.875 L 2.789062 10.875 C 2.167969 10.875 1.664062 11.378906 1.664062 12 C 1.664062 12.621094 2.167969 13.125 2.789062 13.125 L 8.476562 13.125 C 8.808594 13.125 9.125 12.976562 9.339844 12.722656 C 9.550781 12.46875 9.640625 12.132812 9.585938 11.804688 Z M 9.585938 11.804688 "/>
<path style=" stroke:none;fill-rule:nonzero;fill:rgb(100%,100%,100%);fill-opacity:1;" d="M 11.882812 10.648438 C 12.640625 10.6875 13.214844 11.335938 13.175781 12.089844 C 13.132812 12.84375 12.484375 13.421875 11.730469 13.378906 C 10.976562 13.339844 10.398438 12.691406 10.441406 11.9375 C 10.484375 11.183594 11.128906 10.605469 11.882812 10.648438 Z M 11.882812 10.648438 "/>
<path style=" stroke:none;fill-rule:nonzero;fill:rgb(100%,100%,100%);fill-opacity:1;" d="M 20.304688 3.507812 C 15.703125 -1.09375 8.269531 -1.183594 3.554688 3.300781 L 3.40625 3.449219 L 3.335938 3.511719 L 3.304688 3.550781 L 0.347656 6.492188 C 0.191406 6.648438 0.140625 6.886719 0.222656 7.09375 C 0.300781 7.300781 0.5 7.441406 0.722656 7.449219 L 6.347656 7.449219 C 6.570312 7.441406 6.769531 7.300781 6.851562 7.09375 C 6.933594 6.886719 6.882812 6.648438 6.722656 6.492188 L 5.121094 4.894531 C 9.019531 1.234375 15.136719 1.398438 18.835938 5.257812 C 22.535156 9.113281 22.4375 15.234375 18.613281 18.972656 C 14.792969 22.710938 8.675781 22.675781 4.898438 18.894531 C 4.457031 18.453125 3.746094 18.453125 3.304688 18.890625 C 2.863281 19.328125 2.863281 20.042969 3.304688 20.480469 C 7.992188 25.179688 15.597656 25.183594 20.292969 20.496094 C 24.988281 15.808594 24.992188 8.203125 20.304688 3.507812 Z M 20.304688 3.507812 "/>
</g>
</svg>
