
<svg xmlns="http://www.w3.org/2000/svg" xmlns:xlink="http://www.w3.org/1999/xlink" width="16px" height="16px" viewBox="0 0 16 16" version="1.1">
<g id="surface1">
<path style=" stroke:none;fill-rule:nonzero;fill:rgb(56.470588%,56.470588%,56.470588%);fill-opacity:1;" d="M 4.410156 2.058594 L 4.410156 2 L 4.34375 2 C 4.179688 1.851562 3.96875 1.769531 3.75 1.769531 L 2.664062 1.769531 C 2.445312 1.769531 2.234375 1.851562 2.070312 2 L 2 2 L 2 2.066406 C 1.851562 2.230469 1.769531 2.441406 1.765625 2.664062 L 1.765625 3.75 C 1.769531 3.96875 1.851562 4.179688 2 4.34375 L 2 4.410156 L 2.066406 4.410156 C 2.230469 4.558594 2.441406 4.640625 2.664062 4.640625 L 3.75 4.640625 C 3.96875 4.640625 4.183594 4.558594 4.34375 4.410156 L 4.414062 4.410156 L 4.414062 4.34375 C 4.558594 4.179688 4.640625 3.96875 4.640625 3.75 L 4.640625 2.664062 C 4.640625 2.445312 4.558594 2.234375 4.410156 2.070312 Z M 4.410156 2.058594 "/>
<path style=" stroke:none;fill-rule:nonzero;fill:rgb(56.470588%,56.470588%,56.470588%);fill-opacity:1;" d="M 9.203125 2.058594 L 9.203125 2 L 9.136719 2 C 8.972656 1.851562 8.761719 1.769531 8.542969 1.765625 L 7.457031 1.765625 C 7.238281 1.769531 7.027344 1.851562 6.863281 2 L 6.796875 2 L 6.796875 2.066406 C 6.648438 2.230469 6.566406 2.441406 6.566406 2.664062 L 6.566406 3.75 C 6.566406 3.96875 6.648438 4.183594 6.796875 4.34375 L 6.796875 4.414062 L 6.863281 4.414062 C 7.027344 4.5625 7.238281 4.644531 7.457031 4.644531 L 8.542969 4.644531 C 8.761719 4.644531 8.972656 4.5625 9.136719 4.414062 L 9.203125 4.414062 L 9.203125 4.34375 C 9.351562 4.183594 9.433594 3.96875 9.433594 3.75 L 9.433594 2.664062 C 9.433594 2.445312 9.351562 2.234375 9.203125 2.070312 Z M 9.203125 2.058594 "/>
<path style=" stroke:none;fill-rule:nonzero;fill:rgb(56.470588%,56.470588%,56.470588%);fill-opacity:1;" d="M 14 2.070312 L 14 2 L 13.933594 2 C 13.769531 1.851562 13.558594 1.769531 13.335938 1.765625 L 12.25 1.765625 C 12.03125 1.769531 11.820312 1.851562 11.65625 2 L 11.589844 2 L 11.589844 2.066406 C 11.441406 2.230469 11.359375 2.441406 11.359375 2.664062 L 11.359375 3.75 C 11.359375 3.96875 11.441406 4.183594 11.589844 4.34375 L 11.589844 4.414062 L 11.65625 4.414062 C 11.820312 4.5625 12.03125 4.644531 12.253906 4.644531 L 13.335938 4.644531 C 13.554688 4.644531 13.765625 4.5625 13.929688 4.414062 L 14 4.414062 L 14 4.34375 C 14.148438 4.183594 14.230469 3.96875 14.230469 3.75 L 14.230469 2.664062 C 14.230469 2.445312 14.148438 2.234375 14 2.070312 Z M 14 2.070312 "/>
<path style=" stroke:none;fill-rule:nonzero;fill:rgb(56.470588%,56.470588%,56.470588%);fill-opacity:1;" d="M 4.410156 6.851562 L 4.410156 6.796875 L 4.34375 6.796875 C 4.179688 6.648438 3.96875 6.566406 3.75 6.566406 L 2.664062 6.566406 C 2.445312 6.566406 2.234375 6.648438 2.070312 6.796875 L 2 6.796875 L 2 6.863281 C 1.851562 7.027344 1.769531 7.238281 1.765625 7.457031 L 1.765625 8.542969 C 1.769531 8.761719 1.851562 8.972656 2 9.136719 L 2 9.203125 L 2.066406 9.203125 C 2.230469 9.351562 2.441406 9.433594 2.664062 9.433594 L 3.75 9.433594 C 3.96875 9.433594 4.183594 9.351562 4.34375 9.203125 L 4.414062 9.203125 L 4.414062 9.136719 C 4.5625 8.976562 4.644531 8.761719 4.644531 8.542969 L 4.644531 7.457031 C 4.644531 7.238281 4.5625 7.023438 4.414062 6.863281 Z M 4.410156 6.851562 "/>
<path style=" stroke:none;fill-rule:nonzero;fill:rgb(56.470588%,56.470588%,56.470588%);fill-opacity:1;" d="M 9.203125 6.851562 L 9.203125 6.796875 L 9.136719 6.796875 C 8.972656 6.648438 8.761719 6.566406 8.542969 6.566406 L 7.457031 6.566406 C 7.238281 6.566406 7.027344 6.648438 6.863281 6.796875 L 6.796875 6.796875 L 6.796875 6.863281 C 6.648438 7.027344 6.566406 7.238281 6.566406 7.457031 L 6.566406 8.542969 C 6.566406 8.761719 6.648438 8.972656 6.796875 9.136719 L 6.796875 9.203125 L 6.863281 9.203125 C 7.027344 9.351562 7.238281 9.433594 7.457031 9.433594 L 8.542969 9.433594 C 8.761719 9.433594 8.972656 9.351562 9.136719 9.203125 L 9.203125 9.203125 L 9.203125 9.136719 C 9.351562 8.972656 9.433594 8.761719 9.433594 8.542969 L 9.433594 7.457031 C 9.433594 7.238281 9.351562 7.027344 9.203125 6.863281 Z M 9.203125 6.851562 "/>
<path style=" stroke:none;fill-rule:nonzero;fill:rgb(56.470588%,56.470588%,56.470588%);fill-opacity:1;" d="M 14 6.851562 L 14 6.796875 L 13.933594 6.796875 C 13.769531 6.648438 13.558594 6.566406 13.335938 6.566406 L 12.25 6.566406 C 12.03125 6.566406 11.816406 6.648438 11.65625 6.796875 L 11.585938 6.796875 L 11.585938 6.863281 C 11.4375 7.023438 11.355469 7.238281 11.355469 7.457031 L 11.355469 8.542969 C 11.355469 8.761719 11.4375 8.976562 11.585938 9.136719 L 11.585938 9.203125 L 11.65625 9.203125 C 11.816406 9.351562 12.03125 9.433594 12.25 9.433594 L 13.332031 9.433594 C 13.554688 9.433594 13.765625 9.351562 13.925781 9.203125 L 14 9.203125 L 14 9.136719 C 14.148438 8.972656 14.230469 8.761719 14.234375 8.542969 L 14.234375 7.457031 C 14.230469 7.238281 14.148438 7.027344 14 6.863281 Z M 14 6.851562 "/>
<path style=" stroke:none;fill-rule:nonzero;fill:rgb(56.470588%,56.470588%,56.470588%);fill-opacity:1;" d="M 4.410156 11.644531 L 4.410156 11.589844 L 4.34375 11.589844 C 4.179688 11.441406 3.96875 11.359375 3.75 11.359375 L 2.664062 11.359375 C 2.445312 11.359375 2.234375 11.441406 2.070312 11.589844 L 2 11.589844 L 2 11.65625 C 1.851562 11.820312 1.769531 12.03125 1.769531 12.25 L 1.769531 13.332031 C 1.769531 13.554688 1.851562 13.765625 2 13.929688 L 2 14 L 2.066406 14 C 2.230469 14.148438 2.441406 14.230469 2.664062 14.234375 L 3.75 14.234375 C 3.96875 14.230469 4.179688 14.148438 4.34375 14 L 4.410156 14 L 4.410156 13.933594 C 4.558594 13.769531 4.640625 13.558594 4.640625 13.335938 L 4.640625 12.25 C 4.640625 12.03125 4.558594 11.816406 4.410156 11.65625 Z M 4.410156 11.644531 "/>
<path style=" stroke:none;fill-rule:nonzero;fill:rgb(56.470588%,56.470588%,56.470588%);fill-opacity:1;" d="M 9.203125 11.644531 L 9.203125 11.589844 L 9.136719 11.589844 C 8.972656 11.441406 8.761719 11.359375 8.542969 11.359375 L 7.457031 11.359375 C 7.238281 11.359375 7.027344 11.441406 6.863281 11.589844 L 6.796875 11.589844 L 6.796875 11.65625 C 6.648438 11.820312 6.566406 12.03125 6.566406 12.25 L 6.566406 13.332031 C 6.566406 13.554688 6.648438 13.765625 6.796875 13.925781 L 6.796875 14 L 6.863281 14 C 7.027344 14.148438 7.238281 14.230469 7.457031 14.234375 L 8.542969 14.234375 C 8.761719 14.230469 8.972656 14.148438 9.136719 14 L 9.203125 14 L 9.203125 13.933594 C 9.351562 13.769531 9.433594 13.558594 9.433594 13.335938 L 9.433594 12.25 C 9.433594 12.03125 9.351562 11.816406 9.203125 11.65625 Z M 9.203125 11.644531 "/>
<path style=" stroke:none;fill-rule:nonzero;fill:rgb(56.470588%,56.470588%,56.470588%);fill-opacity:1;" d="M 14 11.644531 L 14 11.589844 L 13.933594 11.589844 C 13.769531 11.441406 13.558594 11.359375 13.335938 11.359375 L 12.25 11.359375 C 12.03125 11.359375 11.816406 11.441406 11.65625 11.589844 L 11.585938 11.589844 L 11.585938 11.65625 C 11.441406 11.820312 11.359375 12.03125 11.359375 12.25 L 11.359375 13.332031 C 11.359375 13.554688 11.441406 13.765625 11.589844 13.925781 L 11.589844 14 L 11.65625 14 C 11.820312 14.148438 12.03125 14.230469 12.253906 14.234375 L 13.335938 14.234375 C 13.554688 14.230469 13.765625 14.148438 13.929688 14 L 14 14 L 14 13.933594 C 14.148438 13.769531 14.230469 13.558594 14.234375 13.335938 L 14.234375 12.25 C 14.230469 12.03125 14.148438 11.820312 14 11.65625 Z M 14 11.644531 "/>
</g>
</svg>
