
<svg xmlns="http://www.w3.org/2000/svg" xmlns:xlink="http://www.w3.org/1999/xlink" width="22px" height="22px" viewBox="0 0 22 22" version="1.1">
<g id="surface1">
<path style=" stroke:none;fill-rule:nonzero;fill:rgb(100%,100%,100%);fill-opacity:1;" d="M 15.746094 5.84375 C 15.3125 5.550781 14.730469 5.613281 14.371094 5.996094 L 12.308594 8.058594 C 11.90625 8.460938 11.90625 9.113281 12.308594 9.515625 C 12.503906 9.707031 12.765625 9.820312 13.039062 9.820312 C 13.3125 9.820312 13.578125 9.707031 13.769531 9.515625 L 15.882812 7.425781 C 16.101562 7.210938 16.210938 6.910156 16.183594 6.601562 C 16.160156 6.296875 16 6.019531 15.746094 5.84375 Z M 15.746094 5.84375 "/>
<path style=" stroke:none;fill-rule:nonzero;fill:rgb(100%,100%,100%);fill-opacity:1;" d="M 8.785156 10.820312 C 8.679688 10.316406 8.230469 9.957031 7.714844 9.96875 L 2.558594 9.96875 C 1.988281 9.96875 1.527344 10.429688 1.527344 11 C 1.527344 11.570312 1.988281 12.03125 2.558594 12.03125 L 7.769531 12.03125 C 8.074219 12.03125 8.363281 11.898438 8.558594 11.664062 C 8.757812 11.429688 8.839844 11.121094 8.785156 10.820312 Z M 8.785156 10.820312 "/>
<path style=" stroke:none;fill-rule:nonzero;fill:rgb(100%,100%,100%);fill-opacity:1;" d="M 10.894531 9.757812 C 11.585938 9.796875 12.113281 10.390625 12.078125 11.082031 C 12.039062 11.773438 11.445312 12.304688 10.753906 12.265625 C 10.0625 12.226562 9.53125 11.632812 9.570312 10.941406 C 9.609375 10.25 10.203125 9.722656 10.894531 9.757812 Z M 10.894531 9.757812 "/>
<path style=" stroke:none;fill-rule:nonzero;fill:rgb(100%,100%,100%);fill-opacity:1;" d="M 18.613281 3.214844 C 14.394531 -1.003906 7.582031 -1.085938 3.257812 3.023438 L 3.121094 3.164062 L 3.054688 3.21875 L 3.027344 3.253906 L 0.320312 5.949219 C 0.175781 6.09375 0.128906 6.3125 0.203125 6.5 C 0.277344 6.691406 0.457031 6.820312 0.664062 6.828125 L 5.820312 6.828125 C 6.023438 6.820312 6.207031 6.691406 6.28125 6.5 C 6.355469 6.3125 6.308594 6.09375 6.164062 5.949219 L 4.695312 4.484375 C 8.269531 1.132812 13.875 1.28125 17.265625 4.816406 C 20.65625 8.355469 20.566406 13.964844 17.0625 17.390625 C 13.5625 20.816406 7.953125 20.785156 4.488281 17.320312 C 4.085938 16.914062 3.433594 16.914062 3.03125 17.316406 C 2.625 17.71875 2.625 18.371094 3.027344 18.773438 C 7.324219 23.078125 14.296875 23.085938 18.601562 18.789062 C 22.90625 14.492188 22.910156 7.519531 18.613281 3.214844 Z M 18.613281 3.214844 "/>
</g>
</svg>
